<?xml version="1.0" encoding="UTF-8"?>
<svg id="Layer_2" xmlns="http://www.w3.org/2000/svg" viewBox="0 0 1080 1079.96">
  <defs>
    <style>
      .cls-1 {
        fill: #231f20;
      }
    </style>
  </defs>
  <g id="Layer_1-2" data-name="Layer_1">
    <path class="cls-1" d="M1080,515.47v49.03c0,11.65-9.45,21.1-21.1,21.1h-408.72l284.07,284.09c11.83,11.83,11.85,31.01.02,42.81l-21.71,21.73c-11.83,11.83-31.01,11.81-42.83-.02l-288.57-288.58v413.2c0,11.65-9.45,21.1-21.1,21.1h-49.03c-11.65,0-21.1-9.45-21.1-21.1v-407.47l-279.66,279.68c-11.83,11.83-30.98,11.83-42.81,0l-21.71-21.71c-11.83-11.81-11.83-30.98,0-42.79l280.95-280.95H21.12c-11.67,0-21.12-9.46-21.12-21.12v-49.03c0-11.65,9.45-21.1,21.1-21.1h408.74L148.89,213.4c-11.81-11.81-11.83-30.98,0-42.81l21.71-21.71c11.83-11.83,31.01-11.83,42.81,0l276.5,276.5V21.1c0-11.65,9.45-21.1,21.1-21.1h49.03c11.65,0,21.1,9.45,21.1,21.1v410.04l285.43-285.43c11.83-11.83,30.98-11.83,42.81,0l21.69,21.71c11.83,11.83,11.83,30.98,0,42.81l-284.12,284.12h411.91c11.67,0,21.12,9.46,21.12,21.12Z"/>
  </g>
</svg>