<?xml version="1.0" encoding="UTF-8"?>
<svg id="Layer_2" xmlns="http://www.w3.org/2000/svg" viewBox="0 0 868.32 868.32">
  <defs>
    <style>
      .cls-1 {
        fill: #231f20;
      }

      .cls-2 {
        fill: #fff;
        stroke: #231f20;
        stroke-miterlimit: 10;
        stroke-width: 22px;
      }
    </style>
  </defs>
  <g id="Layer_1-2" data-name="Layer_1">
    <g>
      <circle class="cls-2" cx="434.16" cy="434.16" r="423.16"/>
      <path class="cls-1" d="M692.09,426.82v14.67c0,7.99-6.48,14.46-14.47,14.46h-223.81v221.67c0,7.99-6.47,14.46-14.46,14.46h-14.66c-7.99,0-14.46-6.47-14.46-14.46v-221.67h-219.54c-7.99,0-14.47-6.47-14.47-14.46v-14.67c0-7.99,6.48-14.46,14.47-14.46h219.54v-221.67c0-7.99,6.47-14.46,14.46-14.46h14.66c7.99,0,14.46,6.47,14.46,14.46v221.67h223.81c7.99,0,14.47,6.47,14.47,14.46Z"/>
    </g>
  </g>
</svg>