<svg width="500" height="500" viewBox="0 0 500 500" fill="none" xmlns="http://www.w3.org/2000/svg">
<circle cx="250" cy="250" r="250" fill="black"/>
<g clip-path="url(#clip0_1521_832)">
<path d="M292.878 384H289.913C289.854 383.938 289.8 383.833 289.73 383.817C286.428 383.127 284.464 380.288 284.499 376.66C284.617 364.544 284.652 352.428 284.679 340.309C284.693 333.988 283.991 327.785 281.326 321.942C279.936 318.896 278.061 316.197 275.417 313.728C276.688 313.526 277.686 313.351 278.69 313.214C287.337 312.044 295.808 310.216 303.894 306.812C318.274 300.76 328.284 290.555 333.634 275.857C336.404 268.25 337.694 260.357 338.155 252.32C338.498 246.354 338.433 240.392 337.292 234.489C335.447 224.931 331.2 216.564 324.833 209.229C324.528 208.879 324.32 208.162 324.461 207.747C328.432 195.997 327.42 184.447 323.214 172.996C322.877 172.075 322.34 171.8 321.42 171.746C318.018 171.549 314.702 172.004 311.438 172.905C302.111 175.482 293.828 180.174 285.815 185.441C285.273 185.797 284.377 185.967 283.757 185.805C273.68 183.193 263.444 181.727 253.041 181.525C240.994 181.29 229.121 182.611 217.482 185.77C216.278 186.097 215.38 185.894 214.368 185.234C206.838 180.317 199.033 175.943 190.356 173.323C186.771 172.242 183.131 171.549 179.362 171.786C178.591 171.835 177.905 171.91 177.56 172.832C173.613 183.385 172.256 194.159 175.44 205.111C176.225 207.814 175.828 209.453 174.085 211.558C167.734 219.235 163.917 228.133 162.932 238.05C162.444 242.977 162.546 247.985 162.681 252.95C162.862 259.557 164.006 266.045 165.908 272.385C170.5 287.69 179.84 298.944 194.39 305.806C202.424 309.596 210.945 311.583 219.656 312.933C221.388 313.203 223.126 313.443 225.079 313.726C219.923 318.718 217.503 324.718 216.467 331.395C216.4 331.831 215.847 332.352 215.396 332.546C211.5 334.214 207.461 335.352 203.212 335.67C195.242 336.268 188.088 334.225 182.384 328.535C179.681 325.839 177.536 322.564 175.278 319.454C171.962 314.887 168.163 310.879 162.975 308.451C159.033 306.607 154.881 306.108 150.64 307.227C148.511 307.788 147.893 309.337 149.323 310.955C150.81 312.639 152.696 313.984 154.458 315.413C155.634 316.367 157.05 317.063 158.105 318.125C163.164 323.233 166.801 329.306 169.48 335.915C172.313 342.904 177.188 347.702 184.173 350.366C192.283 353.46 200.684 353.393 209.14 352.374C211.298 352.112 213.448 351.794 215.714 351.487C215.714 352.102 215.714 352.589 215.714 353.077C215.741 360.617 215.76 368.156 215.798 375.695C215.825 380.841 214.808 382.28 209.925 383.898C209.89 383.908 209.868 383.965 209.841 384.003H208.225C207.229 383.774 206.204 383.631 205.241 383.299C180.201 374.69 159.287 360.115 142.651 339.567C124.996 317.745 114.96 292.774 112.518 264.786C112.367 263.05 112.173 261.32 112 259.587C112 254.29 112 248.993 112 243.699C112.084 243.308 112.219 242.923 112.246 242.527C112.71 235.58 113.694 228.702 115.34 221.949C124.548 184.156 145.716 154.896 178.925 134.674C204.332 119.205 232.14 113.102 261.806 115.507C272.671 116.388 283.276 118.537 293.607 122.014C321.01 131.238 343.414 147.457 360.683 170.56C376.669 191.946 385.523 216.084 387.566 242.734C388.61 256.347 387.83 269.829 384.671 283.089C375.457 321.772 353.669 351.36 319.634 371.935C311.214 377.024 302.232 380.935 292.881 383.997L292.878 384Z" fill="#EBC7DC"/>
</g>
<defs>
<clipPath id="clip0_1521_832">
<rect width="276" height="269" fill="white" transform="translate(112 115)"/>
</clipPath>
</defs>
</svg>
