<svg width="500" height="500" viewBox="0 0 500 500" fill="none" xmlns="http://www.w3.org/2000/svg">
<circle cx="250" cy="250" r="250" fill="black"/>
<path d="M216.193 127C238.379 127 260.567 127 282.752 127C283.146 127.058 283.537 127.15 283.932 127.167C290.674 127.439 297.423 127.632 304.16 127.99C311.515 128.381 318.728 129.643 325.774 131.847C340.952 136.589 352.867 145.641 361.286 159.106C368.144 170.076 371.086 182.318 371.917 195.082C372.443 203.177 372.803 211.296 372.82 219.406C372.875 246.528 373.44 273.655 372.235 300.767C371.881 308.771 370.975 316.678 368.815 324.412C364.267 340.696 354.998 353.532 340.588 362.441C329.66 369.197 317.49 372.095 304.81 372.921C296.955 373.432 289.076 373.797 281.21 373.814C253.846 373.869 226.481 374.449 199.125 373.232C191.77 372.906 184.487 372.115 177.34 370.3C160.935 366.136 147.766 357.276 138.436 343.069C131.018 331.776 127.921 319.058 127.021 305.752C126.555 298.861 126.451 291.946 126.174 285.043C126.157 284.611 126.063 284.181 126.002 283.749C126 261.565 126 239.379 126 217.193C126.058 216.802 126.152 216.413 126.167 216.02C126.36 210.64 126.536 205.26 126.731 199.88C126.997 192.603 127.851 185.405 129.645 178.336C133.785 162.019 142.578 148.897 156.673 139.568C168.047 132.04 180.871 128.904 194.304 128.014C201.234 127.553 208.189 127.439 215.133 127.162C215.488 127.147 215.841 127.056 216.193 127ZM147.976 256.844C148.195 267.493 148.482 284.488 148.927 301.48C149.103 308.197 150.119 314.82 152.294 321.221C156.134 332.516 163.361 340.827 174.214 345.862C180.698 348.869 187.613 350.307 194.695 350.761C202.149 351.239 209.625 351.657 217.091 351.669C244.577 351.719 272.066 352.332 299.543 351.08C305.734 350.797 311.851 350.083 317.835 348.396C328.762 345.316 337.317 339.074 343.064 329.236C347.361 321.88 349.169 313.731 349.748 305.339C350.272 297.767 350.663 290.169 350.673 282.581C350.709 255.094 351.341 227.603 350.067 200.126C349.746 193.209 348.891 186.38 346.663 179.781C342.845 168.474 335.627 160.166 324.782 155.109C318.301 152.087 311.387 150.646 304.308 150.185C296.813 149.698 289.298 149.324 281.791 149.268C262.261 149.128 242.726 149.109 223.196 149.205C211.752 149.261 200.288 149.273 188.917 150.868C182.064 151.832 175.501 153.813 169.606 157.518C159.077 164.136 153.148 173.897 150.578 185.9C148.869 193.884 148.63 202.001 148.463 210.104C148.183 223.562 148.164 237.028 147.976 256.842V256.844Z" fill="#EBC7DC"/>
<path d="M312.872 250.499C312.855 285.509 284.396 313.903 249.354 313.871C214.433 313.84 186.015 285.33 186.07 250.385C186.126 215.373 214.597 187.02 249.648 187.073C284.511 187.126 312.888 215.595 312.872 250.499ZM249.535 209.223C226.83 209.204 208.268 227.632 208.225 250.231C208.181 273.158 226.591 291.707 249.412 291.724C272.169 291.741 290.703 273.288 290.722 250.595C290.742 227.758 272.31 209.24 249.535 209.223Z" fill="#EBC7DC"/>
<path d="M330.044 184.703C330.032 192.868 323.411 199.503 315.269 199.506C307.164 199.508 300.47 192.83 300.439 184.71C300.407 176.54 307.103 169.878 315.327 169.902C323.534 169.927 330.056 176.487 330.044 184.705V184.703Z" fill="#EBC7DC"/>
</svg>
