<svg width="500" height="500" viewBox="0 0 500 500" fill="none" xmlns="http://www.w3.org/2000/svg">
<rect width="500" height="500" rx="250" fill="black"/>
<g clip-path="url(#clip0_1521_823)">
<path d="M373 127V373H127V127.006C127.918 127.006 128.629 127.006 129.34 127.006C210.561 127.006 291.779 127.003 373 127ZM223.711 221.708V331.158H260.174V329.385C260.174 321.084 260.174 312.784 260.174 304.483C260.174 292.442 260.094 280.401 260.208 268.359C260.316 256.884 268.632 248.153 279.553 247.802C288.201 247.525 293.99 251.524 296.791 259.695C298.359 264.267 298.645 269.003 298.645 273.781C298.645 292.279 298.645 310.776 298.645 329.274V331.174H335.093C335.117 330.598 335.16 330.099 335.16 329.601C335.164 309.462 335.21 289.326 335.139 269.187C335.114 262.06 334.468 254.975 332.396 248.1C329.742 239.295 325.29 231.653 317.599 226.299C307.17 219.039 295.535 217.721 283.398 220.107C273.694 222.016 266.507 227.808 261.049 235.893C260.842 236.198 260.584 236.462 260.122 237.013V221.705H223.708L223.711 221.708ZM167.096 331.168H203.406V221.755H167.096V331.168ZM186.173 206.576C187.386 206.388 189.615 206.271 191.712 205.686C199.329 203.556 204.354 198.706 205.552 190.778C206.7 183.177 204.302 176.631 197.777 172.185C192.162 168.361 185.804 167.906 179.36 169.47C164.84 172.995 161.601 188.226 167.869 197.887C171.921 204.131 178.042 206.413 186.176 206.576H186.173Z" fill="#EBC7DC"/>
</g>
<defs>
<clipPath id="clip0_1521_823">
<rect width="246" height="246" fill="white" transform="translate(127 127)"/>
</clipPath>
</defs>
</svg>
