<svg width="100" height="120" viewBox="0 0 100 120" fill="none" xmlns="http://www.w3.org/2000/svg">
<path d="M68.1387 17.8391C72.5661 11.6301 78.0983 2.38504 86.6094 0.339534C94.9814 -1.71402 102.617 5.92038 99.1387 13.2004C95.276 21.5274 85.0791 25.6184 77.8773 31.159C73.5236 34.4688 69.4072 37.7868 67.3203 42.3126C65.9782 44.9782 66.8293 48.4169 70.291 48.9887C75.2995 49.9712 83.1559 46.1459 88.6799 48.5538C91.6506 49.633 93.3446 52.5401 92.4117 55.3588C89.4819 63.2106 78.131 66.15 71.183 70.692C64.0141 74.8716 57.729 81.7812 51.7548 88.0304C48.1049 91.9201 44.3649 95.987 41.1732 99.9813C34.7817 108.598 27.9155 117.151 15.779 118.914C5.00103 120.992 -3.37913 112.504 1.35108 103.235C4.13356 97.501 11.3925 93.7965 17.8086 91.2437C25.7468 87.8372 33.8979 85.2199 40.8786 80.3558C44.2585 78.0687 47.2538 72.8019 42.3026 70.6034C37.7033 68.6465 30.6571 70.5551 25.9514 67.97C23.3817 66.5365 22.4079 63.8146 22.948 61.302C23.7173 57.6056 27.3509 54.9078 30.7144 52.5804C35.862 49.0451 41.3942 45.6547 46.3208 41.9019C55.0774 35.1373 61.7472 26.6734 68.0568 17.9679L68.1469 17.8391H68.1387Z" fill="black"/>
</svg>
